<!DOCTYPE svg PUBLIC "-//W3C//DTD SVG 1.1//EN" "http://www.w3.org/Graphics/SVG/1.1/DTD/svg11.dtd">
<!-- Uploaded to: SVG Repo, www.svgrepo.com, Transformed by: SVG Repo Mixer Tools -->
<svg fill="#FACC15" height="800px" width="800px" version="1.1" id="Capa_1" xmlns="http://www.w3.org/2000/svg" xmlns:xlink="http://www.w3.org/1999/xlink" viewBox="-19.17 -19.17 230.01 230.01" xml:space="preserve">
<g id="SVGRepo_bgCarrier" stroke-width="0"/>
<g id="SVGRepo_tracerCarrier" stroke-linecap="round" stroke-linejoin="round" stroke="#CCCCCC" stroke-width="6.133344"/>
<g id="SVGRepo_iconCarrier"> <path d="M95.833,0C42.991,0,0,42.99,0,95.833s42.991,95.834,95.833,95.834s95.833-42.991,95.833-95.834S148.676,0,95.833,0z M150.862,79.646l-60.207,60.207c-2.56,2.56-5.963,3.969-9.583,3.969c-3.62,0-7.023-1.409-9.583-3.969l-30.685-30.685 c-2.56-2.56-3.97-5.963-3.97-9.583c0-3.621,1.41-7.024,3.97-9.584c2.559-2.56,5.962-3.97,9.583-3.97c3.62,0,7.024,1.41,9.583,3.971 l21.101,21.1l50.623-50.623c2.56-2.56,5.963-3.969,9.583-3.969c3.62,0,7.023,1.409,9.583,3.969 C156.146,65.765,156.146,74.362,150.862,79.646z"/> </g>
</svg>